# xmcd
#
# Track frame offsets:
#	182
#	13095
#	28337
#	42505
#	56550
#	78715
#	93002
#	107510
#	123265
#	147537
#	165985
#
# Disc length: 2544 seconds
#
# Revision: 3
# Processed by: cddbd v1.5.2PL0 Copyright (c) Steve Scherf et al.
# Submitted via: audiograbber 1.83.01
#
DISCID=8d09ee0b
DTITLE=Ohio Players - The Best Of
DYEAR=1900
DGENRE=Oldies
TTITLE0=Skin Tight
TTITLE1=Who'd She Coo
TTITLE2=Far East Mississippi
TTITLE3=Jive Turkey - Part 1
TTITLE4=Funk-O-Nots
TTITLE5=O-H-I-O
TTITLE6=Feel The Beat (Everybody Disco)
TTITLE7=Body Vibes
TTITLE8=Good Luck Charm
TTITLE9=Time Slips Away
TTITLE10=Sleepwalkin'
EXTD=
EXTT0=
EXTT1=
EXTT2=
EXTT3=
EXTT4=
EXTT5=
EXTT6=
EXTT7=
EXTT8=
EXTT9=
EXTT10=
PLAYORDER=
